<svg width="125" height="53" viewBox="0 0 125 53" fill="none" xmlns="http://www.w3.org/2000/svg">
<path d="M124.377 2.98229C124.367 1.60162 123.24 0.490295 121.859 0.500089L99.3596 0.659693C97.9789 0.669488 96.8676 1.79669 96.8774 3.17737C96.8872 4.55804 98.0144 5.66936 99.3951 5.65957L119.395 5.5177L119.536 25.5172C119.546 26.8979 120.673 28.0092 122.054 27.9994C123.435 27.9896 124.546 26.8624 124.536 25.4817L124.377 2.98229ZM0.938563 49.9612C1.20285 52.4472 1.20286 52.4472 1.20288 52.4472C1.20289 52.4472 1.20291 52.4472 1.20293 52.4472C1.20297 52.4472 1.20302 52.4472 1.20308 52.4472C1.20321 52.4472 1.20338 52.4472 1.20359 52.4471C1.20402 52.4471 1.20463 52.447 1.20543 52.4469C1.20701 52.4468 1.20932 52.4465 1.21235 52.4462C1.21841 52.4456 1.22735 52.4446 1.23913 52.4433C1.26269 52.4408 1.29764 52.4371 1.34368 52.4321C1.43577 52.4222 1.57227 52.4074 1.75096 52.388C2.10833 52.349 2.63449 52.2911 3.31169 52.2153L2.75501 47.2463C2.08298 47.3216 1.56174 47.379 1.20903 47.4174C1.03268 47.4366 0.89846 47.4512 0.808594 47.4608C0.763662 47.4657 0.729818 47.4693 0.707339 47.4717C0.6961 47.4729 0.687702 47.4738 0.682181 47.4744C0.67942 47.4747 0.677378 47.4749 0.676059 47.475C0.6754 47.4751 0.674922 47.4752 0.674625 47.4752C0.674476 47.4752 0.674373 47.4752 0.674316 47.4752C0.674286 47.4752 0.674269 47.4752 0.674263 47.4752C0.67426 47.4752 0.674264 47.4752 0.674262 47.4752C0.674269 47.4752 0.674278 47.4752 0.938563 49.9612ZM7.53993 51.7296C8.8024 51.5813 10.2252 51.4115 11.7821 51.2216L11.1766 46.2584C9.62763 46.4474 8.21228 46.6162 6.95677 46.7637L7.53993 51.7296ZM16.0105 50.6963C17.3557 50.5262 18.766 50.3451 20.2295 50.1535L19.5805 45.1958C18.1247 45.3864 16.7218 45.5666 15.3834 45.7358L16.0105 50.6963ZM24.4513 49.5911C25.8297 49.4042 27.2417 49.2095 28.679 49.0074L27.9829 44.0561C26.5541 44.257 25.1503 44.4506 23.7795 44.6364L24.4513 49.5911ZM32.8932 48.4037C34.2863 48.2003 35.695 47.9907 37.1126 47.7753L36.3612 42.832C34.9539 43.0459 33.5548 43.2541 32.1709 43.4562L32.8932 48.4037ZM41.3263 47.121C42.7304 46.8982 44.1368 46.67 45.5389 46.4368L44.7186 41.5046C43.3295 41.7356 41.9354 41.9618 40.5427 42.1828L41.3263 47.121ZM49.7492 45.7184C51.1643 45.4705 52.5685 45.2177 53.9549 44.9603L53.0421 40.0443C51.6737 40.2984 50.2862 40.5482 48.8865 40.7934L49.7492 45.7184ZM58.1587 44.1537C59.5897 43.8697 60.9932 43.5807 62.3606 43.2871L61.311 38.3985C59.9715 38.6861 58.5935 38.9699 57.1852 39.2494L58.1587 44.1537ZM66.5493 42.3453C67.2601 42.1775 67.9576 42.0083 68.6402 41.8378L67.4284 36.9868C66.7681 37.1518 66.0917 37.3159 65.4004 37.4791L66.5493 42.3453ZM68.6402 41.8378C69.3338 41.6645 70.0298 41.4723 70.7275 41.2626L69.288 36.4742C68.6616 36.6625 68.0416 36.8337 67.4284 36.9868L68.6402 41.8378ZM74.7842 39.8611C76.0886 39.355 77.3967 38.7966 78.7033 38.1943L76.6102 33.6535C75.3882 34.2168 74.1751 34.7343 72.9756 35.1997L74.7842 39.8611ZM82.4949 36.3263C83.7277 35.6813 84.9572 35.0029 86.179 34.2976L83.6793 29.9673C82.5126 30.6408 81.3439 31.2855 80.1772 31.8959L82.4949 36.3263ZM89.7701 32.1374C90.951 31.3992 92.1218 30.6406 93.2785 29.8678L90.5008 25.7104C89.3832 26.4571 88.2549 27.188 87.1198 27.8976L89.7701 32.1374ZM96.7123 27.5056C97.855 26.6975 98.9798 25.8803 100.083 25.0604L97.0998 21.0477C96.0265 21.8456 94.9336 22.6395 93.8252 23.4234L96.7123 27.5056ZM103.387 22.5484C104.503 21.681 105.59 20.8173 106.645 19.9644L103.5 16.0772C102.47 16.9107 101.408 17.7541 100.319 18.6002L103.387 22.5484ZM109.846 17.3256C110.946 16.4021 111.997 15.5017 112.994 14.6347L109.713 10.8619C108.737 11.7111 107.707 12.5926 106.63 13.4965L109.846 17.3256ZM116.1 11.8871C117.232 10.8679 118.258 9.92472 119.164 9.08052L115.754 5.42339C114.869 6.24908 113.864 7.17241 112.755 8.17071L116.1 11.8871ZM122.169 6.22349C122.646 5.76008 123.015 5.39587 123.266 5.14611C123.392 5.02123 123.488 4.92494 123.554 4.85916C123.587 4.82627 123.612 4.801 123.629 4.7836C123.638 4.7749 123.644 4.76816 123.649 4.76342C123.651 4.76105 123.653 4.75918 123.654 4.75781C123.655 4.75712 123.656 4.75656 123.656 4.75613C123.656 4.75591 123.657 4.75573 123.657 4.75557C123.657 4.7555 123.657 4.75543 123.657 4.75537C123.657 4.75534 123.657 4.7553 123.657 4.75528C123.657 4.75524 123.657 4.75521 121.877 3.00003C120.097 1.24484 120.097 1.24481 120.097 1.24478C120.097 1.24477 120.097 1.24475 120.097 1.24473C120.097 1.2447 120.097 1.24468 120.097 1.24467C120.097 1.24464 120.097 1.24465 120.097 1.24468C120.097 1.24475 120.096 1.24495 120.096 1.24527C120.095 1.24591 120.094 1.24706 120.093 1.2487C120.089 1.25198 120.084 1.25725 120.077 1.26448C120.063 1.27893 120.041 1.30121 120.011 1.33108C119.951 1.39083 119.861 1.48093 119.742 1.5995C119.503 1.83664 119.148 2.18757 118.685 2.63712L122.169 6.22349ZM124.377 2.98229C124.367 1.60162 123.24 0.490295 121.859 0.500089L99.3596 0.659693C97.9789 0.669488 96.8676 1.79669 96.8774 3.17737C96.8872 4.55804 98.0144 5.66936 99.3951 5.65957L119.395 5.5177L119.536 25.5172C119.546 26.8979 120.673 28.0092 122.054 27.9994C123.435 27.9896 124.546 26.8624 124.536 25.4817L124.377 2.98229ZM0.938563 49.9612C1.20285 52.4472 1.20286 52.4472 1.20288 52.4472C1.20289 52.4472 1.20291 52.4472 1.20293 52.4472C1.20297 52.4472 1.20302 52.4472 1.20308 52.4472C1.20321 52.4472 1.20338 52.4472 1.20359 52.4471C1.20402 52.4471 1.20463 52.447 1.20543 52.4469C1.20701 52.4468 1.20932 52.4465 1.21235 52.4462C1.21841 52.4456 1.22735 52.4446 1.23913 52.4433C1.26269 52.4408 1.29764 52.4371 1.34368 52.4321C1.43577 52.4222 1.57227 52.4074 1.75096 52.388C2.10833 52.349 2.63449 52.2911 3.31169 52.2153L2.75501 47.2463C2.08298 47.3216 1.56174 47.379 1.20903 47.4174C1.03268 47.4366 0.89846 47.4512 0.808594 47.4608C0.763662 47.4657 0.729818 47.4693 0.707339 47.4717C0.6961 47.4729 0.687702 47.4738 0.682181 47.4744C0.67942 47.4747 0.677378 47.4749 0.676059 47.475C0.6754 47.4751 0.674922 47.4752 0.674625 47.4752C0.674476 47.4752 0.674373 47.4752 0.674316 47.4752C0.674286 47.4752 0.674269 47.4752 0.674263 47.4752C0.67426 47.4752 0.674264 47.4752 0.674262 47.4752C0.674269 47.4752 0.674278 47.4752 0.938563 49.9612ZM7.53993 51.7296C8.8024 51.5813 10.2252 51.4115 11.7821 51.2216L11.1766 46.2584C9.62763 46.4474 8.21228 46.6162 6.95677 46.7637L7.53993 51.7296ZM16.0105 50.6963C17.3557 50.5262 18.766 50.3451 20.2295 50.1535L19.5805 45.1958C18.1247 45.3864 16.7218 45.5666 15.3834 45.7358L16.0105 50.6963ZM24.4513 49.5911C25.8297 49.4042 27.2417 49.2095 28.679 49.0074L27.9829 44.0561C26.5541 44.257 25.1503 44.4506 23.7795 44.6364L24.4513 49.5911ZM32.8932 48.4037C34.2863 48.2003 35.695 47.9907 37.1126 47.7753L36.3612 42.832C34.9539 43.0459 33.5548 43.2541 32.1709 43.4562L32.8932 48.4037ZM41.3263 47.121C42.7304 46.8982 44.1368 46.67 45.5389 46.4368L44.7186 41.5046C43.3295 41.7356 41.9354 41.9618 40.5427 42.1828L41.3263 47.121ZM49.7492 45.7184C51.1643 45.4705 52.5685 45.2177 53.9549 44.9603L53.0421 40.0443C51.6737 40.2984 50.2862 40.5482 48.8865 40.7934L49.7492 45.7184ZM58.1587 44.1537C59.5897 43.8697 60.9932 43.5807 62.3606 43.2871L61.311 38.3985C59.9715 38.6861 58.5935 38.9699 57.1852 39.2494L58.1587 44.1537ZM66.5493 42.3453C67.2601 42.1775 67.9576 42.0083 68.6402 41.8378L67.4284 36.9868C66.7681 37.1518 66.0917 37.3159 65.4004 37.4791L66.5493 42.3453ZM68.6402 41.8378C69.3338 41.6645 70.0298 41.4723 70.7275 41.2626L69.288 36.4742C68.6616 36.6625 68.0416 36.8337 67.4284 36.9868L68.6402 41.8378ZM74.7842 39.8611C76.0886 39.355 77.3967 38.7966 78.7033 38.1943L76.6102 33.6535C75.3882 34.2168 74.1751 34.7343 72.9756 35.1997L74.7842 39.8611ZM82.4949 36.3263C83.7277 35.6813 84.9572 35.0029 86.179 34.2976L83.6793 29.9673C82.5126 30.6408 81.3439 31.2855 80.1772 31.8959L82.4949 36.3263ZM89.7701 32.1374C90.951 31.3992 92.1218 30.6406 93.2785 29.8678L90.5008 25.7104C89.3832 26.4571 88.2549 27.188 87.1198 27.8976L89.7701 32.1374ZM96.7123 27.5056C97.855 26.6975 98.9798 25.8803 100.083 25.0604L97.0998 21.0477C96.0265 21.8456 94.9336 22.6395 93.8252 23.4234L96.7123 27.5056ZM103.387 22.5484C104.503 21.681 105.59 20.8173 106.645 19.9644L103.5 16.0772C102.47 16.9107 101.408 17.7541 100.319 18.6002L103.387 22.5484ZM109.846 17.3256C110.946 16.4021 111.997 15.5017 112.994 14.6347L109.713 10.8619C108.737 11.7111 107.707 12.5926 106.63 13.4965L109.846 17.3256ZM116.1 11.8871C117.232 10.8679 118.258 9.92472 119.164 9.08052L115.754 5.42339C114.869 6.24908 113.864 7.17241 112.755 8.17071L116.1 11.8871ZM122.169 6.22349C122.646 5.76008 123.015 5.39587 123.266 5.14611C123.392 5.02123 123.488 4.92494 123.554 4.85916C123.587 4.82627 123.612 4.801 123.629 4.7836C123.638 4.7749 123.644 4.76816 123.649 4.76342C123.651 4.76105 123.653 4.75918 123.654 4.75781C123.655 4.75712 123.656 4.75656 123.656 4.75613C123.656 4.75591 123.657 4.75573 123.657 4.75557C123.657 4.7555 123.657 4.75543 123.657 4.75537C123.657 4.75534 123.657 4.7553 123.657 4.75528C123.657 4.75524 123.657 4.75521 121.877 3.00003C120.097 1.24484 120.097 1.24481 120.097 1.24478C120.097 1.24477 120.097 1.24475 120.097 1.24473C120.097 1.2447 120.097 1.24468 120.097 1.24467C120.097 1.24464 120.097 1.24465 120.097 1.24468C120.097 1.24475 120.096 1.24495 120.096 1.24527C120.095 1.24591 120.094 1.24706 120.093 1.2487C120.089 1.25198 120.084 1.25725 120.077 1.26448C120.063 1.27893 120.041 1.30121 120.011 1.33108C119.951 1.39083 119.861 1.48093 119.742 1.5995C119.503 1.83664 119.148 2.18757 118.685 2.63712L122.169 6.22349Z" fill="#FF4A4A"/>
</svg>
