<svg width="126.495117" height="54.446228" viewBox="0 0 126.495 54.4462" fill="none" xmlns="http://www.w3.org/2000/svg" xmlns:xlink="http://www.w3.org/1999/xlink">
	<desc>
			Created with Pixso.
	</desc>
	<defs/>
	<path id="Arrow 2" d="M112.33 10.06L81.24 10.28C78.44 10.3 76.23 8.11 76.21 5.31C76.19 2.51 78.37 0.3 81.17 0.28L121.17 0C123.97 -0.02 126.19 2.16 126.21 4.96L126.49 44.96C126.51 47.76 124.33 49.97 121.53 49.99C118.73 50.01 116.51 47.83 116.49 45.03L116.27 13.13Q115.94 13.42 115.62 13.71L112.33 10.06ZM109.07 12.83Q107.58 14.13 106.09 15.38L109.31 19.21Q110.83 17.93 112.35 16.61L109.07 12.83ZM102.9 18.02Q101.3 19.32 99.71 20.55L102.78 24.5Q104.4 23.23 106.04 21.9L102.9 18.02ZM96.49 23Q94.81 24.25 93.16 25.41L96.05 29.49Q97.75 28.29 99.48 27.01L96.49 23ZM2.07 49.24L0 49.47L0.54 54.44L2.62 54.21L2.07 49.24ZM89.84 27.7Q88.13 28.84 86.46 29.89L89.11 34.13Q90.84 33.04 92.62 31.85L89.84 27.7ZM10.24 48.29L6.23 48.76L6.83 53.73L10.84 53.25L10.24 48.29ZM18.74 47.21L14.69 47.73L15.33 52.69L19.38 52.17L18.74 47.21ZM27.19 46.07L23.02 46.64L23.71 51.6L27.87 51.02L27.19 46.07ZM82.99 31.97Q81.19 33.01 79.46 33.92L81.77 38.35Q83.6 37.4 85.49 36.3L82.99 31.97ZM35.5 44.86L31.28 45.48L32.02 50.43L36.23 49.8L35.5 44.86ZM41.59 43.9L39.74 44.2L40.53 49.14L42.38 48.84L44.82 48.44L44.01 43.51L41.59 43.9ZM75.94 35.65Q74.03 36.53 72.21 37.23L74.01 41.89Q75.98 41.14 78.03 40.19L75.94 35.65ZM52.46 42.02L48.24 42.78L49.13 47.7L53.35 46.94L52.46 42.02ZM60.8 40.36L56.51 41.25L57.52 46.14L61.82 45.26L60.8 40.36ZM66.77 38.98L64.83 39.45L66.01 44.31L67.96 43.84Q68.96 43.59 69.98 43.28L68.54 38.49Q67.64 38.76 66.77 38.98Z" fill="#FF4A4A" fill-opacity="1.000000" fill-rule="evenodd"/>
</svg>
