<svg width="62.642578" height="62.642944" viewBox="0 0 62.6426 62.6429" fill="none" xmlns="http://www.w3.org/2000/svg" xmlns:xlink="http://www.w3.org/1999/xlink">
	<desc>
			Created with Pixso.
	</desc>
	<defs>
		<clipPath id="clip81_858">
			<rect id="mdi:present-outline" rx="0.000000" width="25.000000" height="25.000000" transform="translate(21.341797 17.584473) rotate(8.645869)" fill="white" fill-opacity="0"/>
		</clipPath>
	</defs>
	<circle id="Ellipse 4" r="27.500000" transform="matrix(0.988636 0.150327 -0.150327 0.988636 31.3213 31.3215)" fill="#FFFFFF" fill-opacity="0.470000"/>
	<circle id="Ellipse 4" r="21.500000" transform="matrix(0.988636 0.150327 -0.150327 0.988636 31.3213 31.3215)" fill="#FFFFFF" fill-opacity="1.000000"/>
	<rect id="mdi:present-outline" rx="0.000000" width="25.000000" height="25.000000" transform="translate(21.341797 17.584473) rotate(8.645869)" fill="#FFFFFF" fill-opacity="0"/>
	<g clip-path="url(#clip81_858)">
		<path id="Vector" d="M42.45 33.51L41.14 42.08C41.06 42.65 40.75 43.16 40.28 43.5C39.82 43.84 39.24 43.99 38.67 43.9L21.54 41.29C20.97 41.21 20.46 40.9 20.12 40.44C19.78 39.97 19.64 39.39 19.72 38.83L21.02 30.26C20.74 30.21 20.49 30.06 20.31 29.83C20.14 29.6 20.07 29.31 20.12 29.02L20.6 25.81C20.69 25.24 21 24.73 21.46 24.39C21.93 24.05 22.5 23.91 23.07 23.99L26.47 24.51C26.4 24.15 26.39 23.78 26.45 23.41C26.58 22.56 27.04 21.79 27.74 21.28C28.43 20.77 29.3 20.56 30.15 20.69C31.22 20.85 32.08 21.53 32.55 22.41L32.55 22.4L33.04 23.32L33.77 22.59L33.77 22.6C34.48 21.89 35.5 21.5 36.58 21.66C37.43 21.79 38.19 22.26 38.71 22.95C39.22 23.65 39.43 24.51 39.3 25.37C39.25 25.73 39.13 26.08 38.96 26.41L42.35 26.93C42.92 27.01 43.43 27.32 43.77 27.78C44.11 28.25 44.25 28.83 44.17 29.39L43.68 32.61C43.64 32.89 43.48 33.15 43.25 33.32C43.02 33.49 42.73 33.56 42.45 33.51ZM21.86 39.15L29.36 40.29L30.66 31.72L23.17 30.58L21.86 39.15ZM39 41.76L40.3 33.19L32.81 32.05L31.5 40.62L39 41.76ZM29.82 22.83C29.54 22.79 29.25 22.86 29.02 23.03C28.79 23.2 28.63 23.45 28.59 23.74C28.55 24.02 28.62 24.31 28.79 24.54C28.96 24.77 29.21 24.93 29.5 24.97C29.78 25.01 30.07 24.94 30.3 24.77C30.54 24.6 30.69 24.35 30.73 24.06C30.78 23.78 30.7 23.49 30.53 23.26C30.36 23.03 30.11 22.87 29.82 22.83ZM36.25 23.81C35.97 23.76 35.68 23.83 35.45 24C35.21 24.18 35.06 24.43 35.02 24.71C34.97 25 35.04 25.29 35.21 25.52C35.39 25.75 35.64 25.91 35.92 25.95C36.21 25.99 36.5 25.92 36.73 25.75C36.96 25.58 37.12 25.32 37.16 25.04C37.2 24.76 37.13 24.47 36.96 24.24C36.79 24 36.54 23.85 36.25 23.81ZM22.75 26.14L22.42 28.28L30.99 29.58L31.32 27.44L22.75 26.14ZM33.46 27.76L33.13 29.91L41.7 31.21L42.03 29.07L33.46 27.76Z" fill="#C4DFFF" fill-opacity="1.000000" fill-rule="nonzero"/>
	</g>
</svg>
