<svg width="11" height="11" viewBox="0 0 11 11" fill="none" xmlns="http://www.w3.org/2000/svg">
<g clip-path="url(#clip0_11_24)">
<path d="M10.3444 1.66742C10.4658 1.79227 10.534 1.96151 10.534 2.13796C10.534 2.31442 10.4658 2.48366 10.3444 2.60851L4.07758 9.04517C3.95602 9.16986 3.79125 9.2399 3.61945 9.2399C3.44765 9.2399 3.28288 9.16986 3.16132 9.04517L0.352045 6.15977C0.23739 6.03357 0.174929 5.86657 0.177831 5.69399C0.180734 5.5214 0.248774 5.35672 0.367604 5.23466C0.48644 5.11261 0.646778 5.04273 0.814809 5.03975C0.98284 5.03677 1.14543 5.10092 1.2683 5.21868L3.61945 7.63354L9.42817 1.66742C9.54972 1.54273 9.7145 1.47269 9.8863 1.47269C10.0581 1.47269 10.2229 1.54273 10.3444 1.66742Z" fill="white"/>
</g>
<defs>
<clipPath id="clip0_11_24">
<rect width="10.3563" height="10.3563" fill="white" transform="translate(0.177734 0.178146)"/>
</clipPath>
</defs>
</svg>
