<svg width="18" height="18" viewBox="0 0 18 18" fill="none" xmlns="http://www.w3.org/2000/svg">
<path d="M15.0742 7.42251C15.0942 5.01251 13.0417 2.80335 10.4992 2.49751C10.4443 2.49055 10.3895 2.48221 10.335 2.47251C10.2072 2.44856 10.0776 2.43463 9.94754 2.43085C9.42587 2.43085 9.2867 2.79751 9.25004 3.01501C9.21448 3.22835 9.24809 3.40529 9.35087 3.54585C9.52337 3.78001 9.82754 3.82168 10.0717 3.85501C10.1425 3.86501 10.21 3.87418 10.2667 3.88668C12.5517 4.39751 13.3209 5.20001 13.6967 7.46585C13.7059 7.52085 13.71 7.58918 13.715 7.66168C13.7317 7.93251 13.765 8.49585 14.3709 8.49585C14.4214 8.49585 14.4753 8.49168 14.5325 8.48335C15.0959 8.39751 15.0784 7.88251 15.07 7.63501C15.0675 7.56501 15.065 7.49918 15.0717 7.45501L15.0734 7.42168L15.0742 7.42251Z" fill="#3C6BE4"/>
<path d="M9.79968 1.61333C9.86857 1.61778 9.93024 1.62361 9.98468 1.63083C13.7372 2.20833 15.463 3.98583 15.9405 7.7675C15.9488 7.83167 15.9505 7.91 15.9513 7.9925C15.9563 8.28833 15.9663 8.90333 16.6263 8.91583H16.6463C16.8541 8.91583 17.0175 8.85389 17.1363 8.73C17.3413 8.51583 17.328 8.19667 17.3155 7.94C17.3127 7.87611 17.3111 7.81778 17.3105 7.765C17.3588 3.89833 14.0105 0.390833 10.1472 0.260833C10.1305 0.260833 10.115 0.261667 10.1005 0.263333L10.0547 0.265833C10.0147 0.265278 9.96913 0.263056 9.91802 0.259167C9.85802 0.255 9.78885 0.25 9.71802 0.25C9.10302 0.25 8.98635 0.6875 8.97135 0.948333C8.93718 1.55083 9.51968 1.59333 9.79968 1.61333ZM15.7597 12.655C15.6792 12.5938 15.5994 12.5316 15.5205 12.4683C15.1105 12.1383 14.6747 11.835 14.2538 11.5408L13.9913 11.3575C13.4513 10.9783 12.9663 10.7942 12.508 10.7942C11.8897 10.7942 11.3513 11.1358 10.9063 11.8083C10.7097 12.1067 10.4705 12.2517 10.1763 12.2517C9.97189 12.2456 9.77118 12.1952 9.58802 12.1042C7.84635 11.3142 6.60135 10.1025 5.88968 8.50333C5.54552 7.73 5.65718 7.225 6.26218 6.81333C6.60635 6.58 7.24552 6.14583 7.20135 5.31333C7.14968 4.36917 5.06552 1.52667 4.18718 1.20417C3.81174 1.06699 3.40007 1.06581 3.02385 1.20083C2.01468 1.54 1.29135 2.13667 0.928849 2.92417C0.578849 3.68583 0.595515 4.58 0.973849 5.51C2.06968 8.19917 3.60968 10.5442 5.55218 12.4792C7.45301 14.3733 9.78968 15.9242 12.4963 17.09C12.7405 17.195 12.9963 17.2525 13.1838 17.2942C13.2472 17.3083 13.3022 17.3208 13.3422 17.3317C13.3642 17.3378 13.3869 17.3409 13.4097 17.3408H13.4313C14.7047 17.3408 16.2338 16.1775 16.703 14.8517C17.1147 13.69 16.363 13.1158 15.7597 12.655ZM10.363 4.68583C10.1455 4.69083 9.69135 4.7025 9.53218 5.16417C9.45718 5.38083 9.46607 5.56667 9.55885 5.72167C9.69385 5.94667 9.95302 6.01667 10.188 6.055C11.0422 6.19167 11.4813 6.66333 11.5688 7.54083C11.6097 7.94917 11.8855 8.235 12.238 8.235C12.2647 8.23462 12.2914 8.23295 12.318 8.23C12.743 8.18 12.9488 7.8675 12.9305 7.30167C12.9372 6.71167 12.6288 6.04167 12.103 5.50833C11.5763 4.97333 10.9413 4.67167 10.363 4.68583Z" fill="#3C6BE4"/>
</svg>
