<svg width="11.412109" height="10.854126" viewBox="0 0 11.4121 10.8541" fill="none" xmlns="http://www.w3.org/2000/svg" xmlns:xlink="http://www.w3.org/1999/xlink">
	<desc>
			Created with Pixso.
	</desc>
	<defs/>
	<path id="Star 1" d="M5.7 0L4.35 4.14L0 4.14L3.52 6.7L2.17 10.85L5.7 8.29L9.23 10.85L7.88 6.7L11.41 4.14L7.05 4.14L5.7 0Z" fill="#F8DE53" fill-opacity="1.000000" fill-rule="nonzero"/>
	<path id="Star 1" d="M5.7 0L4.35 4.14L0 4.14L3.52 6.7L2.17 10.85L5.7 8.29L9.23 10.85L7.88 6.7L11.41 4.14L7.05 4.14L5.7 0ZM5.7 3.23L5.08 5.14L3.07 5.14L4.7 6.32L4.08 8.23L5.7 7.05L7.33 8.23L6.7 6.32L8.33 5.14L6.32 5.14L5.7 3.23Z" fill="#F8DE53" fill-opacity="1.000000" fill-rule="evenodd"/>
</svg>
