<svg width="119.000000" height="48.000000" viewBox="0 0 119 48" fill="none" xmlns="http://www.w3.org/2000/svg" xmlns:xlink="http://www.w3.org/1999/xlink">
	<desc>
			Created with Pixso.
	</desc>
	<defs/>
	<path id="Star 1" d="M11 0L8.53 7.6L0.53 7.6L7 12.29L4.53 19.89L11 15.2L17.46 19.89L14.99 12.29L21.46 7.6L13.46 7.6L11 0Z" fill="#F8DE53" fill-opacity="1.000000" fill-rule="nonzero"/>
	<path id="Star 1" d="M11 0L8.53 7.6L0.53 7.6L7 12.29L4.53 19.89L11 15.2L17.46 19.89L14.99 12.29L21.46 7.6L13.46 7.6L11 0ZM11 3.23L9.25 8.6L3.61 8.6L8.17 11.91L6.43 17.28L11 13.96L15.56 17.28L13.82 11.91L18.38 8.6L12.74 8.6L11 3.23Z" fill="#F8DE53" fill-opacity="1.000000" fill-rule="evenodd"/>
	<rect id="Rectangle 28" width="9.000000" height="20.000000" fill="#F7F7F7" fill-opacity="1.000000"/>
</svg>
