<svg width="32.000000" height="33.000000" viewBox="0 0 32 33" fill="none" xmlns="http://www.w3.org/2000/svg" xmlns:xlink="http://www.w3.org/1999/xlink">
	<desc>
			Created with Pixso.
	</desc>
	<defs>
		<clipPath id="clip11_99">
			<rect id="file-icons:telegram" rx="0.000000" width="31.000000" height="31.000000" transform="translate(0.500000 0.500000)" fill="white" fill-opacity="0"/>
		</clipPath>
	</defs>
	<rect id="Rectangle 6" x="3.000000" y="5.000000" rx="4.000000" width="28.000000" height="28.000000" fill="#039BE6" fill-opacity="1.000000"/>
	<rect id="file-icons:telegram" rx="0.000000" width="31.000000" height="31.000000" transform="translate(0.500000 0.500000)" fill="#FFFFFF" fill-opacity="0"/>
	<g clip-path="url(#clip11_99)">
		<path id="Vector" d="M24.37 11.19L6.65 18.12C5.94 18.45 5.7 19.09 6.48 19.45L11.03 20.91L22.02 14.02C22.62 13.58 23.23 13.7 22.7 14.18L13.26 22.85L12.97 26.52C13.24 27.09 13.74 27.09 14.06 26.81L16.68 24.3L21.15 27.7C22.19 28.33 22.75 27.92 22.98 26.78L25.91 12.68C26.21 11.27 25.7 10.65 24.37 11.19Z" fill="#FFFFFF" fill-opacity="1.000000" fill-rule="nonzero"/>
	</g>
</svg>
