<svg width="28.000000" height="28.000000" viewBox="0 0 28 28" fill="none" xmlns="http://www.w3.org/2000/svg" xmlns:xlink="http://www.w3.org/1999/xlink">
	<desc>
			Created with Pixso.
	</desc>
	<defs>
		<clipPath id="clip11_105">
			<rect id="basil:viber-outline" rx="0.000000" width="23.000000" height="23.000000" transform="translate(2.500000 3.500000)" fill="white" fill-opacity="0"/>
		</clipPath>
	</defs>
	<rect id="Rectangle 6" rx="4.000000" width="28.000000" height="28.000000" fill="#7525B5" fill-opacity="1.000000"/>
	<rect id="basil:viber-outline" rx="0.000000" width="23.000000" height="23.000000" transform="translate(2.500000 3.500000)" fill="#FFFFFF" fill-opacity="0"/>
	<g clip-path="url(#clip11_105)">
		<path id="Vector" d="M9.96 9.2C9.77 9.17 9.58 9.21 9.42 9.3L9.41 9.3C9.03 9.52 8.7 9.8 8.41 10.13C8.17 10.4 8.04 10.68 8 10.95C7.98 11.11 8 11.28 8.04 11.43L8.06 11.44C8.33 12.23 8.68 12.99 9.12 13.71C9.67 14.72 10.35 15.65 11.14 16.49L11.17 16.52L11.21 16.55L11.23 16.58L11.26 16.6C12.09 17.4 13.03 18.08 14.04 18.64C15.2 19.27 15.9 19.57 16.32 19.69L16.32 19.7C16.44 19.73 16.55 19.75 16.66 19.75C17.02 19.73 17.36 19.58 17.63 19.34C17.95 19.05 18.23 18.71 18.44 18.33L18.44 18.33C18.64 17.95 18.58 17.59 18.29 17.35C17.7 16.84 17.07 16.38 16.41 16C15.96 15.75 15.5 15.9 15.32 16.15L14.92 16.64C14.72 16.89 14.36 16.85 14.36 16.85L14.35 16.86C11.62 16.16 10.89 13.4 10.89 13.4C10.89 13.4 10.85 13.02 11.11 12.83L11.6 12.43C11.83 12.24 12 11.79 11.75 11.34C11.36 10.67 10.91 10.04 10.4 9.46C10.29 9.32 10.13 9.23 9.96 9.2L9.96 9.2ZM14.58 8C14.44 8 14.32 8.05 14.22 8.14C14.13 8.24 14.08 8.36 14.08 8.5C14.08 8.63 14.13 8.75 14.22 8.85C14.32 8.94 14.44 9 14.58 9C15.84 9 16.89 9.41 17.72 10.2C18.15 10.63 18.48 11.15 18.7 11.71C18.92 12.27 19.02 12.87 18.99 13.47C18.99 13.61 19.03 13.74 19.12 13.83C19.21 13.93 19.34 13.99 19.47 14C19.6 14 19.73 13.95 19.83 13.86C19.93 13.77 19.99 13.65 19.99 13.52C20.02 12.78 19.9 12.04 19.63 11.35C19.36 10.65 18.95 10.02 18.43 9.49L18.42 9.48C17.38 8.5 16.08 8 14.58 8Z" fill="#FFFFFF" fill-opacity="1.000000" fill-rule="nonzero"/>
		<path id="Vector" d="M14.54 9.64C14.41 9.64 14.28 9.69 14.19 9.79C14.09 9.88 14.04 10.01 14.04 10.14C14.04 10.27 14.09 10.4 14.19 10.49C14.28 10.59 14.41 10.64 14.54 10.64L14.56 10.64C15.47 10.7 16.13 11.01 16.6 11.51C17.08 12.02 17.32 12.66 17.3 13.45C17.3 13.58 17.35 13.71 17.44 13.81C17.53 13.9 17.66 13.96 17.79 13.96C17.92 13.96 18.05 13.91 18.15 13.82C18.24 13.73 18.3 13.61 18.3 13.47C18.33 12.44 17.99 11.54 17.33 10.83L17.33 10.83C16.65 10.1 15.72 9.72 14.61 9.64L14.59 9.64L14.54 9.64Z" fill="#FFFFFF" fill-opacity="1.000000" fill-rule="nonzero"/>
		<path id="Vector" d="M14.52 11.31C14.45 11.31 14.39 11.32 14.32 11.34C14.26 11.36 14.2 11.39 14.15 11.43C14.1 11.48 14.06 11.53 14.03 11.59C14 11.65 13.98 11.72 13.98 11.79C13.97 11.85 13.98 11.92 14.01 11.98C14.03 12.05 14.07 12.1 14.11 12.15C14.16 12.2 14.21 12.24 14.27 12.27C14.34 12.3 14.4 12.31 14.47 12.31C14.89 12.33 15.15 12.46 15.32 12.63C15.49 12.8 15.62 13.07 15.64 13.5C15.64 13.57 15.66 13.63 15.68 13.69C15.71 13.75 15.75 13.81 15.8 13.86C15.85 13.9 15.91 13.94 15.97 13.96C16.03 13.98 16.1 13.99 16.17 13.99C16.23 13.99 16.3 13.97 16.36 13.94C16.42 13.91 16.47 13.87 16.52 13.82C16.56 13.77 16.6 13.71 16.62 13.64C16.64 13.58 16.64 13.51 16.64 13.45C16.61 12.85 16.42 12.32 16.03 11.93C15.65 11.54 15.12 11.35 14.52 11.31Z" fill="#FFFFFF" fill-opacity="1.000000" fill-rule="nonzero"/>
		<path id="Vector" d="M9.06 5.38C12.24 4.67 15.54 4.67 18.73 5.38L19.07 5.45C20 5.66 20.85 6.12 21.53 6.79C22.22 7.45 22.7 8.29 22.94 9.22C23.75 12.4 23.75 15.73 22.94 18.92C22.7 19.84 22.22 20.68 21.53 21.35C20.85 22.01 20 22.47 19.07 22.68L18.73 22.76C16.73 23.2 14.69 23.37 12.65 23.25L10 25.63C9.9 25.72 9.77 25.78 9.64 25.8C9.51 25.83 9.37 25.82 9.25 25.78C9.12 25.73 9.01 25.65 8.92 25.55C8.83 25.45 8.78 25.33 8.76 25.19L8.32 22.57C7.47 22.31 6.71 21.84 6.11 21.2C5.5 20.56 5.07 19.77 4.85 18.92C4.04 15.73 4.04 12.4 4.85 9.22C5.09 8.29 5.57 7.45 6.26 6.79C6.94 6.12 7.79 5.66 8.72 5.45L9.06 5.38ZM18.4 6.84C15.43 6.18 12.36 6.18 9.39 6.84L9.05 6.92C8.39 7.07 7.79 7.39 7.3 7.86C6.82 8.34 6.47 8.93 6.31 9.59C5.56 12.53 5.56 15.61 6.31 18.55C6.47 19.2 6.82 19.8 7.3 20.27C7.79 20.74 8.39 21.07 9.05 21.22L9.14 21.24C9.29 21.27 9.42 21.34 9.52 21.45C9.62 21.56 9.69 21.7 9.72 21.84L10.01 23.6L11.88 21.93C11.96 21.86 12.04 21.81 12.14 21.78C12.23 21.74 12.33 21.73 12.44 21.74C14.43 21.88 16.44 21.73 18.4 21.29L18.74 21.22C19.4 21.07 20 20.74 20.49 20.27C20.97 19.8 21.32 19.2 21.48 18.55C22.23 15.61 22.23 12.53 21.48 9.59C21.32 8.93 20.97 8.34 20.49 7.86C20 7.39 19.4 7.07 18.74 6.92L18.4 6.84Z" fill="#FFFFFF" fill-opacity="1.000000" fill-rule="evenodd"/>
	</g>
</svg>
