<svg width="24" height="24" viewBox="0 0 24 24" fill="none" xmlns="http://www.w3.org/2000/svg">
<path d="M7.96485 6.202C7.77899 6.17478 7.58942 6.2122 7.42785 6.308H7.41385C7.03885 6.528 6.70085 6.805 6.41285 7.131C6.17285 7.408 6.04285 7.688 6.00885 7.958C5.98885 8.118 6.00285 8.28 6.04985 8.433L6.06785 8.443C6.33785 9.236 6.68985 9.999 7.11985 10.717C7.67455 11.7253 8.35683 12.658 9.14985 13.492L9.17385 13.526L9.21185 13.554L9.23485 13.581L9.26285 13.605C10.0998 14.4003 11.0347 15.0858 12.0448 15.645C13.1998 16.274 13.9008 16.571 14.3218 16.695V16.701C14.4448 16.739 14.5568 16.756 14.6698 16.756C15.0286 16.7303 15.3682 16.5844 15.6338 16.342C15.9588 16.054 16.2338 15.715 16.4478 15.338V15.331C16.6488 14.951 16.5808 14.593 16.2908 14.35C15.7088 13.8404 15.0789 13.3883 14.4098 13C13.9618 12.757 13.5068 12.904 13.3228 13.15L12.9298 13.646C12.7278 13.892 12.3618 13.858 12.3618 13.858L12.3518 13.864C9.62085 13.167 8.89185 10.402 8.89185 10.402C8.89185 10.402 8.85785 10.026 9.11085 9.834L9.60285 9.438C9.83885 9.246 10.0028 8.792 9.74985 8.344C9.36243 7.67543 8.91133 7.04584 8.40285 6.464C8.29162 6.32738 8.13585 6.23427 7.96285 6.201M12.5798 5C12.4472 5 12.3201 5.05268 12.2263 5.14645C12.1325 5.24021 12.0798 5.36739 12.0798 5.5C12.0798 5.63261 12.1325 5.75979 12.2263 5.85355C12.3201 5.94732 12.4472 6 12.5798 6C13.8438 6 14.8938 6.413 15.7248 7.205C16.1518 7.638 16.4848 8.151 16.7028 8.713C16.9218 9.276 17.0218 9.877 16.9958 10.479C16.9903 10.6116 17.0376 10.741 17.1274 10.8387C17.2173 10.9364 17.3422 10.9944 17.4748 11C17.6075 11.0056 17.7368 10.9582 17.8346 10.8684C17.9323 10.7786 17.9903 10.6536 17.9958 10.521C18.0257 9.78056 17.9028 9.0419 17.6348 8.351C17.3657 7.65658 16.9557 7.02536 16.4308 6.497L16.4208 6.487C15.3898 5.502 14.0858 5 12.5798 5Z" fill="white"/>
<path d="M12.5449 6.64401C12.4123 6.64401 12.2851 6.69668 12.1914 6.79045C12.0976 6.88422 12.0449 7.0114 12.0449 7.14401C12.0449 7.27661 12.0976 7.40379 12.1914 7.49756C12.2851 7.59133 12.4123 7.64401 12.5449 7.64401H12.5619C13.4739 7.70901 14.1379 8.01301 14.6029 8.51201C15.0799 9.02601 15.3269 9.66501 15.3079 10.455C15.3049 10.5876 15.3546 10.716 15.4462 10.8119C15.5378 10.9079 15.6638 10.9635 15.7964 10.9665C15.929 10.9696 16.0574 10.9198 16.1533 10.8282C16.2493 10.7366 16.3049 10.6106 16.3079 10.478C16.3319 9.441 15.9979 8.54601 15.3359 7.83201V7.83001C14.6589 7.10401 13.7299 6.72001 12.6119 6.64501L12.5949 6.64301L12.5449 6.64401Z" fill="white"/>
<path d="M12.5264 8.31901C12.4595 8.31311 12.392 8.32075 12.3281 8.34147C12.2642 8.3622 12.2052 8.39559 12.1545 8.43965C12.1038 8.48371 12.0625 8.53753 12.033 8.59791C12.0036 8.65829 11.9866 8.72398 11.9831 8.79106C11.9796 8.85814 11.9897 8.92524 12.0127 8.98835C12.0357 9.05146 12.0712 9.10929 12.117 9.15838C12.1629 9.20747 12.2182 9.24682 12.2795 9.27407C12.3409 9.30133 12.4072 9.31593 12.4744 9.31701C12.8924 9.33901 13.1594 9.46501 13.3274 9.63401C13.4964 9.80401 13.6224 10.077 13.6454 10.504C13.6466 10.5711 13.6614 10.6373 13.6887 10.6986C13.7161 10.7598 13.7555 10.815 13.8046 10.8607C13.8537 10.9064 13.9116 10.9418 13.9747 10.9647C14.0377 10.9876 14.1048 10.9976 14.1718 10.994C14.2388 10.9905 14.3044 10.9734 14.3647 10.944C14.425 10.9145 14.4788 10.8732 14.5228 10.8226C14.5668 10.7719 14.6002 10.7129 14.6209 10.6491C14.6416 10.5852 14.6492 10.5179 14.6434 10.451C14.6114 9.85101 14.4234 9.32101 14.0384 8.93101C13.6514 8.54101 13.1244 8.35101 12.5264 8.31901Z" fill="white"/>
<path fill-rule="evenodd" clip-rule="evenodd" d="M7.06735 2.384C10.2494 1.6727 13.5493 1.6727 16.7313 2.384L17.0703 2.459C18.0003 2.66748 18.8544 3.12943 19.5378 3.79364C20.2213 4.45785 20.7074 5.29837 20.9423 6.222C21.7508 9.40479 21.7508 12.7392 20.9423 15.922C20.7074 16.8456 20.2213 17.6861 19.5378 18.3504C18.8544 19.0146 18.0003 19.4765 17.0703 19.685L16.7303 19.76C14.7373 20.205 12.6923 20.373 10.6533 20.259L8.00035 22.633C7.90033 22.7225 7.77811 22.7836 7.64644 22.8098C7.51477 22.836 7.37848 22.8264 7.2518 22.7819C7.12511 22.7375 7.01268 22.6599 6.92624 22.5572C6.83979 22.4544 6.7825 22.3304 6.76035 22.198L6.32135 19.576C5.47976 19.3136 4.71942 18.84 4.11285 18.2004C3.50627 17.5607 3.07369 16.7763 2.85635 15.922C2.04788 12.7392 2.04788 9.40479 2.85635 6.222C3.09129 5.29837 3.57744 4.45785 4.26089 3.79364C4.94434 3.12943 5.79839 2.66748 6.72835 2.459L7.06735 2.384ZM16.4043 3.847C13.4376 3.1838 10.3611 3.1838 7.39435 3.847L7.05435 3.923C6.39531 4.07118 5.79013 4.39886 5.30583 4.86975C4.82152 5.34064 4.47698 5.93638 4.31035 6.591C3.56334 9.53163 3.56334 12.6124 4.31035 15.553C4.47706 16.2077 4.82175 16.8036 5.30625 17.2745C5.79074 17.7454 6.39613 18.073 7.05535 18.221L7.14535 18.241C7.29094 18.2736 7.42352 18.3488 7.52612 18.4571C7.62873 18.5654 7.6967 18.7019 7.72135 18.849L8.01535 20.607L9.88735 18.932C9.96211 18.8649 10.0496 18.8135 10.1446 18.7809C10.2396 18.7482 10.3401 18.735 10.4403 18.742C12.4394 18.8831 14.4484 18.7332 16.4043 18.297L16.7433 18.221C17.4026 18.073 18.008 17.7454 18.4925 17.2745C18.9769 16.8036 19.3216 16.2077 19.4883 15.553C20.2344 12.613 20.2344 9.532 19.4883 6.591C19.3216 5.93625 18.9769 5.34043 18.4925 4.86952C18.008 4.39862 17.4026 4.07102 16.7433 3.923L16.4043 3.847Z" fill="white"/>
</svg>
