<svg width="28.000000" height="28.000000" viewBox="0 0 28 28" fill="none" xmlns="http://www.w3.org/2000/svg" xmlns:xlink="http://www.w3.org/1999/xlink">
	<desc>
			Created with Pixso.
	</desc>
	<defs/>
	<rect id="Rectangle 6" rx="4.000000" width="28.000000" height="28.000000" fill="#16DA3F" fill-opacity="1.000000"/>
	<path id="Vector" d="M19.26 17.51C19.1 18.3 18.67 19.01 18.05 19.53C17.42 20.04 16.64 20.32 15.83 20.32C13.66 20.32 11.59 19.46 10.06 17.93C8.53 16.4 7.67 14.32 7.66 12.15C7.67 11.34 7.95 10.56 8.46 9.93C8.97 9.31 9.69 8.88 10.48 8.72C10.73 8.67 10.99 8.7 11.22 8.82C11.45 8.93 11.63 9.11 11.75 9.34L12.86 11.58C12.96 11.76 13 11.97 12.98 12.17C12.97 12.38 12.9 12.57 12.79 12.75L11.96 13.99C12.39 14.88 13.11 15.6 14 16.02L15.24 15.19C15.41 15.08 15.61 15.01 15.81 15C16.02 14.99 16.22 15.03 16.4 15.12L18.64 16.24C18.87 16.35 19.05 16.54 19.16 16.77C19.28 17 19.31 17.26 19.26 17.51ZM24 14.49C24 16.29 23.53 18.06 22.65 19.62C21.78 21.19 20.51 22.51 18.97 23.45C17.44 24.39 15.69 24.92 13.89 24.99C12.1 25.05 10.31 24.66 8.71 23.84L5.56 24.89C5.22 25.01 4.85 25.03 4.5 24.94C4.14 24.86 3.82 24.68 3.56 24.43C3.31 24.17 3.13 23.85 3.05 23.49C2.96 23.14 2.98 22.77 3.1 22.43L4.15 19.27C3.43 17.86 3.03 16.3 3 14.71C2.97 13.13 3.3 11.55 3.96 10.11C4.62 8.67 5.6 7.39 6.83 6.39C8.06 5.38 9.49 4.66 11.04 4.29C12.58 3.92 14.19 3.9 15.74 4.24C17.29 4.58 18.74 5.26 19.99 6.24C21.24 7.22 22.24 8.48 22.94 9.9C23.63 11.33 23.99 12.9 24 14.49ZM21.66 14.49C21.66 13.23 21.37 12 20.82 10.87C20.26 9.75 19.46 8.77 18.47 8.01C17.47 7.24 16.32 6.72 15.09 6.48C13.86 6.23 12.59 6.27 11.38 6.6C10.17 6.92 9.05 7.52 8.11 8.35C7.17 9.18 6.43 10.21 5.95 11.37C5.47 12.52 5.27 13.78 5.35 15.03C5.43 16.28 5.8 17.49 6.43 18.58C6.51 18.72 6.56 18.88 6.58 19.04C6.6 19.21 6.58 19.37 6.53 19.53L5.56 22.43L8.46 21.46C8.58 21.42 8.7 21.4 8.83 21.4C9.03 21.4 9.23 21.46 9.41 21.56C10.65 22.28 12.06 22.66 13.49 22.66C14.93 22.66 16.33 22.28 17.58 21.57C18.82 20.85 19.85 19.82 20.57 18.57C21.29 17.33 21.66 15.92 21.66 14.49Z" fill="#FFFFFF" fill-opacity="1.000000" fill-rule="nonzero"/>
</svg>
